<svg height="496pt" viewBox="0 -4 496.00006 496" width="496pt" xmlns="http://www.w3.org/2000/svg"><path d="m488 360v120h-480v-32c78.480469 20.480469 147.28125 6.242188 240-16 3.601562-.878906 7.199219-1.839844 10.800781-2.957031 2.800781-.800781 5.597657-1.683594 8.398438-2.640625 8.480469-2.800782 16.878906-6.082032 25.28125-9.679688 2.480469-1.042968 4.960937-2.082031 7.359375-3.203125 6.398437-2.796875 12.71875-5.757812 19.121094-8.796875 3.359374-1.601562 6.640624-3.203125 10-4.800781.875-.378906 1.730468-.804687 2.558593-1.28125 7.441407-3.519531 14.71875-7.121094 22.082031-10.558594 4.523438 17.503907 18.496094 30.980469 36.152344 34.867188s35.996094-2.476563 47.453125-16.460938c11.457031-13.988281 14.082031-33.222656 6.792969-49.765625 14.738281-1.914062 29.710938-.796875 44 3.277344zm0 0" fill="#57a4ff"/><path d="m328.960938 399.921875c.875-.378906 1.730468-.804687 2.558593-1.28125l4.480469 1.359375c-2.238281 0-4.558594 0-7.039062-.078125zm0 0" fill="#57a4ff"/><path d="m488 216v144c-14.289062-4.074219-29.261719-5.191406-44-3.277344-9.09375-20.855468-31.578125-32.464844-53.84375-27.796875-22.269531 4.664063-38.203125 24.324219-38.15625 47.074219 0 4.082031.535156 8.140625 1.601562 12.082031-7.363281 3.4375-14.640624 7.039063-22.082031 10.558594-.828125.476563-1.683593.902344-2.558593 1.28125-13.769532.015625-27.519532-1.054687-41.121094-3.199219-40.878906-7.839844-72.320313-28.800781-104.640625-57.679687-1.121094-1.042969-2.238281-2-3.277344-2.960938 66.796875.398438 100.957031-14.320312 148.078125-59.121093 42.667969-39.574219 96-59.894532 160-60.960938zm0 0" fill="#57a4ff"/><path d="m192 256c0 44.183594-35.816406 80-80 80s-80-35.816406-80-80c0-44.179688 35.816406-80 80-80s80 35.820312 80 80zm0 0" fill="#57a4ff"/><path d="m112 288 20-20" fill="#57a4ff"/><path d="m344 200c0 26.511719-21.492188 48-48 48s-48-21.488281-48-48c0-26.507812 21.492188-48 48-48s48 21.492188 48 48zm0 0" fill="#57a4ff"/><g fill="#004fac"><path d="m493.601562 210.296875c-1.53125-1.492187-3.59375-2.316406-5.730468-2.296875-65.757813 1.074219-121.382813 22.296875-165.382813 63.203125-6.535156 6.207031-12.617187 11.757813-18.488281 16.796875v-32.640625c29.070312-4.195313 49.960938-30.136719 47.855469-59.433594-2.101563-29.296875-26.484375-51.988281-55.855469-51.988281s-53.753906 22.691406-55.855469 51.988281c-2.105469 29.296875 18.785157 55.238281 47.855469 59.433594v40.640625c.035156 1.375.433594 2.71875 1.152344 3.890625-29.273438 21.597656-55.953125 28.839844-105.03125 28.109375-.3125.046875-.625.109375-.929688.191406-3.199218-2.941406-6.449218-5.972656-9.742187-9.085937l-.128907-.113281c28.691407-27.875 34.972657-71.59375 15.289063-106.417969s-60.378906-51.992188-99.058594-41.789063c-38.675781 10.207032-65.609375 45.214844-65.550781 85.214844v.679688c-4.984375-.320313-10.175781-.566407-15.878906-.679688-2.140625 0-4.199219.820312-5.753906 2.289062-1.523438 1.511719-2.3750005 3.566407-2.367188 5.710938v216c0 4.417969 3.582031 8 8 8h480c4.417969 0 8-3.582031 8-8v-264c-.003906-2.144531-.867188-4.199219-2.398438-5.703125zm-237.601562-10.296875c.003906-21.046875 16.320312-38.492188 37.324219-39.902344 21-1.40625 39.5 13.699219 42.316406 34.5625 2.816406 20.859375-11.015625 40.332032-31.640625 44.542969v-11.890625l17.65625-17.65625c3.03125-3.136719 2.988281-8.128906-.097656-11.214844-3.085938-3.085937-8.074219-3.128906-11.214844-.097656l-6.34375 6.34375v-12.6875c0-4.417969-3.582031-8-8-8s-8 3.582031-8 8v47.203125c-18.609375-3.828125-31.976562-20.199219-32-39.203125zm77.449219 82.824219c40.082031-36.730469 92.195312-57.5625 146.550781-58.582031v125.679687c-10.335938-1.894531-20.878906-2.417969-31.351562-1.550781-13.117188-23.515625-41.140626-34.328125-66.652344-25.71875-25.511719 8.609375-41.25 34.191406-37.4375 60.84375l-9.007813 4.378906c-2.796875 1.375-5.597656 2.742188-8.445312 4.117188-51.203125.578124-87.867188-16.800782-125.898438-48.109376 59.457031-1.617187 87.21875-18.21875 132.242188-61.058593zm74.550781 120.488281 17.65625-17.65625c3.03125-3.136719 2.988281-8.128906-.097656-11.214844-3.085938-3.085937-8.074219-3.128906-11.214844-.097656l-6.34375 6.34375v-12.6875c0-4.417969-3.582031-8-8-8s-8 3.582031-8 8v47.203125c-20.121094-4.109375-33.859375-22.785156-31.796875-43.214844 2.0625-20.429687 19.261719-35.980469 39.796875-35.980469s37.734375 15.550782 39.796875 35.980469c2.066406 20.429688-11.675781 39.105469-31.796875 43.214844zm-245.511719-72.550781c43.894531 41.777343 81.910157 68.550781 134.191407 75.441406-16.289063 7.46875-33.203126 13.496094-50.542969 18.015625-41.4375 10.894531-83.585938 18.890625-126.136719 23.925781.003906-.046875.003906-.09375 0-.144531v-104.40625c14.574219-1.3125 28.582031-6.265625 40.742188-14.402344.578124.539063 1.179687 1.042969 1.746093 1.570313zm-50.488281-146.761719c38.121094.121094 69.539062 29.933594 71.660156 67.992188 2.121094 38.0625-25.789062 71.179687-63.660156 75.535156v-36.214844l17.65625-17.65625c3.03125-3.136719 2.988281-8.128906-.097656-11.214844-3.085938-3.085937-8.074219-3.128906-11.214844-.097656l-6.34375 6.34375v-12.6875c0-4.417969-3.582031-8-8-8s-8 3.582031-8 8v71.527344c-37.871094-4.355469-65.78125-37.472656-63.660156-75.535156 2.121094-38.058594 33.539062-67.871094 71.660156-67.992188zm-86.34375 88.800781c7.519531 38.363281 39.417969 67.1875 78.34375 70.792969v104.40625c.050781.4375.132812.867188.257812 1.289062-29.636718 1.800782-59.371093-.765624-88.257812-7.625v-169.421874c3.375.136718 6.558594.335937 9.65625.558593zm-9.65625 199.199219v-13.984375c22.832031 5.234375 46.175781 7.878906 69.601562 7.882813 50.09375 0 101.375-11.035157 164.320313-26.121094 32.125-9.214844 63.1875-21.792969 92.679687-37.519532l6.46875-3.152343c7.898438 17.347656 24.070313 29.5 42.929688 32.253906v40.640625zm392 0v-40.640625c15.417969-2.171875 29.222656-10.691406 38.085938-23.492187 8.859374-12.804688 11.964843-28.726563 8.570312-43.921876 8.515625-.296874 17.035156.511719 25.34375 2.398438v105.65625zm0 0"/><path d="m72 136h96c2.253906.003906 4.402344-.949219 5.921875-2.613281 12.894531-4.800781 22.40625-15.90625 25.167969-29.386719h72.910156c2.25 0 4.394531-.945312 5.910156-2.605469 18.152344-6.714843 28.878906-25.476562 25.453125-44.523437-3.421875-19.046875-20.011719-32.898438-39.363281-32.871094h-.257812c-9.519532-14.949219-26.015626-24-43.742188-24-17.722656 0-34.222656 9.050781-43.742188 24-12.742187-.042969-24.742187 5.984375-32.3125 16.234375-11.59375-7.457031-25.679687-9.984375-39.140624-7.023437-13.457032 2.957031-25.183594 11.160156-32.582032 22.789062h-.222656c-22.089844 0-40 17.910156-40 40 0 22.09375 17.910156 40 40 40zm104-96c1.136719.035156 2.269531.160156 3.382812.378906 3.457032.550782 6.867188-1.207031 8.425782-4.335937 6.035156-12.269531 18.519531-20.039063 32.191406-20.039063s26.15625 7.769532 32.191406 20.039063c1.546875 3.144531 4.96875 4.90625 8.425782 4.335937 1.113281-.21875 2.246093-.34375 3.382812-.378906 12.082031-.027344 22.289062 8.949219 23.808594 20.933594 1.519531 11.984375-6.128906 23.222656-17.832032 26.210937-.726562.1875-1.421874.476563-2.066406.855469h-68.710937c-3.996094-18.59375-20.386719-31.90625-39.40625-32-1.144531-1.789062-2.394531-3.503906-3.746094-5.144531 4.363281-6.785157 11.886719-10.878907 19.953125-10.855469zm-104 32c1.160156.042969 2.316406.167969 3.457031.378906 3.425781.519532 6.796875-1.242187 8.328125-4.355468 6.050782-12.257813 18.539063-20.023438 32.214844-20.023438s26.164062 7.765625 32.214844 20.023438c1.703125 3.113281 5.164062 4.832031 8.671875 4.304687 1.027343-.183594 2.070312-.296875 3.113281-.328125 12.070312-.023438 22.265625 8.941406 23.792969 20.914062 1.523437 11.972657-6.101563 23.207032-17.792969 26.207032-.738281.191406-1.449219.488281-2.105469.878906h-91.894531c-13.253906 0-24-10.742188-24-24 0-13.253906 10.746094-24 24-24zm0 0"/><path d="m368 88h64c13.253906 0 24-10.742188 24-24 0-13.253906-10.746094-24-24-24h-64c-13.253906 0-24 10.746094-24 24 0 13.257812 10.746094 24 24 24zm0-32h64c4.417969 0 8 3.582031 8 8s-3.582031 8-8 8h-64c-4.417969 0-8-3.582031-8-8s3.582031-8 8-8zm0 0"/><path d="m72 104h40c4.417969 0 8-3.582031 8-8s-3.582031-8-8-8h-40c-4.417969 0-8 3.582031-8 8s3.582031 8 8 8zm0 0"/><path d="m136 104c3.769531-.035156 6.992188-2.726562 7.699219-6.429688.710937-3.707031-1.292969-7.394531-4.785157-8.820312-3.488281-1.425781-7.5-.191406-9.589843 2.949219-2.085938 3.136719-1.671875 7.316406.996093 9.980469 1.535157 1.460937 3.5625 2.289062 5.679688 2.320312zm0 0"/><path d="m400 272h40c4.417969 0 8-3.582031 8-8s-3.582031-8-8-8h-40c-4.417969 0-8 3.582031-8 8s3.582031 8 8 8zm0 0"/><path d="m460.960938 271.359375c1.9375.855469 4.140624.855469 6.078124 0 .980469-.382813 1.875-.953125 2.640626-1.679687 1.460937-1.53125 2.289062-3.5625 2.320312-5.679688-.011719-1.042969-.230469-2.078125-.640625-3.039062-.726563-2.007813-2.308594-3.59375-4.320313-4.320313-1.945312-.800781-4.132812-.800781-6.078124 0-.96875.40625-1.863282.972656-2.640626 1.679687-.722656.765626-1.292968 1.660157-1.679687 2.640626-.410156.960937-.628906 1.996093-.640625 3.039062.03125 2.117188.859375 4.148438 2.320312 5.679688.777344.707031 1.671876 1.277343 2.640626 1.679687zm0 0"/></g></svg>