<svg height="496pt" viewBox="0 -15 496 496" width="496pt" xmlns="http://www.w3.org/2000/svg"><g fill="#57a4ff"><path d="m368 298.21875h-128l22.878906-42.078125h82.242188zm0 0"/><path d="m345.601562 186.21875h-83.203124l41.601562-81.757812 25.441406 49.917968zm0 0"/><path d="m458.320312 250.21875h-97.441406l-29.277344-55.277344 4.398438-8.722656h88zm0 0"/><path d="m431.199219 106.21875h-100.160157l50.082032-98.558594zm0 0"/><path d="m48 274.21875h160v24h-160zm0 0"/><path d="m56 218.21875h144v32h-144zm0 0"/><path d="m64 298.21875h24v40h-24zm0 0"/><path d="m168 298.21875h24v40h-24zm0 0"/><path d="m64 250.21875h24v24h-24zm0 0"/><path d="m168 250.21875h24v24h-24zm0 0"/><path d="m8 378.21875h480v40h-480zm0 0"/></g><path d="m8 346.21875h440c4.417969 0 8-3.582031 8-8s-3.582031-8-8-8h-56v-72h66.320312c2.8125 0 5.421876-1.476562 6.863282-3.890625 1.445312-2.417969 1.515625-5.414063.183594-7.890625l-28-52.21875h12.3125c2.804687.003906 5.40625-1.46875 6.855468-3.871094 1.449219-2.40625 1.53125-5.390625.21875-7.871094l-36.121094-68.257812h10.605469c2.785157.003906 5.367188-1.441406 6.824219-3.8125 1.453125-2.371094 1.574219-5.328125.3125-7.808594l-50.101562-98.570312c-1.507813-2.5-4.214844-4.027344-7.132813-4.027344s-5.625 1.527344-7.132813 4.027344l-50.105468 98.570312c-1.257813 2.480469-1.140625 5.4375.316406 7.808594s4.039062 3.816406 6.820312 3.8125h10.5625l-12.066406 22.832031-18.398437-36.230469c-1.511719-2.5-4.21875-4.027343-7.136719-4.027343s-5.625 1.527343-7.136719 4.027343l-41.558593 81.777344c-1.261719 2.480469-1.140626 5.4375.3125 7.808594 1.457031 2.371094 4.039062 3.816406 6.824218 3.8125h5.261719l-27.664063 52.257812c-1.3125 2.480469-1.230468 5.464844.21875 7.871094 1.445313 2.402344 4.046876 3.875 6.855469 3.871094h5.503907l-19.648438 36.183594c-1.347656 2.480468-1.285156 5.484375.15625 7.910156 1.441406 2.421875 4.054688 3.90625 6.875 3.90625h56v24h-96v-24h8c4.417969 0 8-3.582031 8-8v-24c0-4.417969-3.582031-8-8-8h-8v-8c4.417969 0 8-3.582031 8-8v-32c0-4.417969-3.582031-8-8-8h-144c-4.417969 0-8 3.582031-8 8v32c0 4.417969 3.582031 8 8 8v8h-8c-4.417969 0-8 3.582031-8 8v24c0 4.417969 3.582031 8 8 8h8v24h-48c-4.417969 0-8 3.582031-8 8s3.582031 8 8 8zm152-40v24h-64v-24zm284.953125-64h-79.25l-25.085937-47.390625.304687-.609375h78.277344zm-63.808594-216.910156 37.054688 72.910156h-74.121094zm-22.960937 91.765625c.464844-.886719.753906-1.855469.847656-2.855469h44.167969c.097656 1 .382812 1.972656.847656 2.863281l32.351563 61.136719h-85.925782l-12.074218-23.71875zm-54.183594 5.027343 28.519531 56.117188h-57.039062zm-18.191406 72.117188h36.382812l25.410156 48h-87.203124zm-15.921875 65.722656c.242187-.550781.414062-1.128906.511719-1.722656h67.203124c.105469.59375.28125 1.171875.527344 1.722656l16.421875 30.277344h-101.101562zm42.113281 46.277344h56c2.820312 0 5.433594-1.484375 6.875-3.90625 1.441406-2.425781 1.503906-5.429688.15625-7.910156l-19.648438-36.183594h20.617188v72h-64zm-128 24h-8v-24h8zm0-64h-8v-8h8zm-88 0v-8h64v8zm-32-40h128v16h-128zm8 32h8v8h-8zm-16 24h144v8h-144zm16 24h8v24h-8zm0 0" fill="#004fac"/><path d="m472 346.21875h16c4.417969 0 8-3.582031 8-8s-3.582031-8-8-8h-16c-4.417969 0-8 3.582031-8 8s3.582031 8 8 8zm0 0" fill="#004fac"/><path d="m488 450.21875h-440c-4.417969 0-8 3.582031-8 8s3.582031 8 8 8h440c4.417969 0 8-3.582031 8-8s-3.582031-8-8-8zm0 0" fill="#004fac"/><path d="m472 362.21875c-11.332031-.242188-22.476562 2.914062-32 9.058594-14.695312 9.257812-33.402344 9.257812-48.097656 0-19.605469-12.074219-44.34375-12.074219-63.949219 0-14.6875 9.257812-33.386719 9.257812-48.074219 0-19.601562-12.074219-44.332031-12.074219-63.933594 0-7.097656 4.722656-15.476562 7.148437-24 6.941406-8.523437.207031-16.902343-2.21875-24-6.941406-9.523437-6.152344-20.667968-9.304688-32-9.058594-11.3125-.234375-22.441406 2.917969-31.945312 9.058594-7.097656 4.722656-15.476562 7.148437-24 6.941406-8.523438.207031-16.902344-2.21875-24-6.941406-9.523438-6.144532-20.667969-9.300782-32-9.058594-4.417969 0-8 3.582031-8 8s3.582031 8 8 8c8.523438-.203125 16.902344 2.222656 24 6.945312 9.523438 6.148438 20.667969 9.304688 32 9.054688 11.332031.242188 22.476562-2.910156 32-9.054688 7.097656-4.726562 15.476562-7.148437 24-6.945312 8.523438-.207031 16.902344 2.21875 24 6.945312 9.523438 6.148438 20.667969 9.300782 32 9.054688 11.320312.242188 22.449219-2.914062 31.960938-9.054688 14.683593-9.257812 33.378906-9.257812 48.0625 0 19.605468 12.074219 44.339843 12.074219 63.945312 0 14.6875-9.257812 33.390625-9.257812 48.078125 0 19.621094 12.085938 44.378906 12.085938 64 0 7.085937-4.710937 15.445313-7.132812 23.953125-6.945312 4.417969 0 8-3.582031 8-8s-3.582031-8-8-8zm0 0" fill="#004fac"/><path d="m472 402.21875c-11.332031-.242188-22.476562 2.914062-32 9.058594-14.695312 9.257812-33.402344 9.257812-48.097656 0-19.605469-12.074219-44.34375-12.074219-63.949219 0-14.6875 9.257812-33.386719 9.257812-48.074219 0-19.601562-12.074219-44.332031-12.074219-63.933594 0-7.097656 4.722656-15.476562 7.148437-24 6.941406-8.523437.207031-16.902343-2.21875-24-6.941406-9.523437-6.152344-20.667968-9.304688-32-9.058594-11.3125-.234375-22.441406 2.917969-31.945312 9.058594-7.097656 4.722656-15.476562 7.148437-24 6.941406-8.523438.207031-16.902344-2.21875-24-6.941406-9.523438-6.144532-20.667969-9.300782-32-9.058594-4.417969 0-8 3.582031-8 8s3.582031 8 8 8c8.523438-.203125 16.902344 2.222656 24 6.945312 9.523438 6.148438 20.667969 9.304688 32 9.054688 11.332031.242188 22.476562-2.910156 32-9.054688 7.097656-4.726562 15.476562-7.148437 24-6.945312 8.523438-.207031 16.902344 2.21875 24 6.945312 9.523438 6.148438 20.667969 9.300782 32 9.054688 11.320312.242188 22.449219-2.914062 31.960938-9.054688 14.683593-9.257812 33.378906-9.257812 48.0625 0 19.605468 12.074219 44.339843 12.074219 63.945312 0 14.6875-9.257812 33.390625-9.257812 48.078125 0 19.621094 12.085938 44.378906 12.085938 64 0 7.085937-4.710937 15.445313-7.132812 23.953125-6.945312 4.417969 0 8-3.582031 8-8s-3.582031-8-8-8zm0 0" fill="#004fac"/><path d="m24 450.21875h-16c-4.417969 0-8 3.582031-8 8s3.582031 8 8 8h16c4.417969 0 8-3.582031 8-8s-3.582031-8-8-8zm0 0" fill="#004fac"/></svg>