<svg height="498pt" viewBox="0 -13 498.62967 498" width="498pt" xmlns="http://www.w3.org/2000/svg"><path d="m488 325.355469v138.960937h-16l-88-152h-224l-88 152h-64v-184l62.402344-73.601562 1.597656 1.601562 21.679688 16 21.679687-16 21.761719 16 21.679687-16 21.679688 16 21.761719-16 21.757812 16 19.039062-19.042968 29.839844 35.203124 68.480469-80.160156 106.640625 120zm0 0" fill="#57a4ff"/><path d="m248 464.316406h-176l88-152zm0 0" fill="#57a4ff"/><path d="m496 336.316406-8-1.441406v-9.519531zm0 0" fill="#57a4ff"/><g fill="#004fac"><path d="m488 456.316406h-11.390625l-85.6875-148c-1.429687-2.472656-4.066406-4-6.921875-4h-224c-2.1875.003906-4.273438.914063-5.769531 2.511719-.378907.382813-.722657.800781-1.03125 1.246094-.078125.082031-.078125.160156-.160157.242187l-85.679687 148h-19.359375c-4.417969 0-8 3.582032-8 8 0 4.417969 3.582031 8 8 8h440c4.417969 0 8-3.582031 8-8 0-4.417968-3.582031-8-8-8zm-328 0h-74.160156l74.160156-128 74.160156 128zm92.640625 0-78.71875-136h205.46875l78.738281 136zm0 0"/><path d="m24 456.316406h-16c-4.417969 0-8 3.582032-8 8 0 4.417969 3.582031 8 8 8h16c4.417969 0 8-3.582031 8-8 0-4.417968-3.582031-8-8-8zm0 0"/><path d="m152 376.316406v64c0 4.417969 3.582031 8 8 8s8-3.582031 8-8v-64c0-4.417968-3.582031-8-8-8s-8 3.582032-8 8zm0 0"/><path d="m344 424.316406c-4.417969 0-8 3.582032-8 8 0 4.417969 3.582031 8 8 8h32c4.417969 0 8-3.582031 8-8 0-4.417968-3.582031-8-8-8zm0 0"/><path d="m400 440.316406h8c4.417969 0 8-3.582031 8-8 0-4.417968-3.582031-8-8-8h-8c-4.417969 0-8 3.582032-8 8 0 4.417969 3.582031 8 8 8zm0 0"/><path d="m14.082031 285.515625 57.40625-67.601563 17.464844 12.878907c2.824219 2.085937 6.679687 2.085937 9.503906 0l16.925781-12.492188 16.953126 12.492188c2.824218 2.082031 6.671874 2.082031 9.496093 0l16.96875-12.503907 16.96875 12.503907c2.820313 2.074219 6.660157 2.074219 9.480469 0l17-12.511719 17.007812 12.511719c3.148438 2.386719 7.59375 1.984375 10.261719-.925781l.136719.136718 12.847656-12.890625 58.054688 68.402344c2.875 3.378906 7.941406 3.792969 11.320312.917969 3.382813-2.871094 3.792969-7.9375.921875-11.320313l-30.71875-36.160156 59.277344-66.558594 143.28125 161.199219c2.917969 3.3125 7.964844 3.632812 11.28125.722656 3.308594-2.917968 3.628906-7.964844.71875-11.28125l-149.28125-168c-1.519531-1.722656-3.703125-2.707031-6-2.707031s-4.480469.984375-6 2.707031l-63.679687 71.601563-108.238282-127.523438c-1.570312-1.71875-3.792968-2.699219-6.121094-2.699219-2.328124 0-4.550781.980469-6.121093 2.699219l-149.277344 176c-2.875 3.359375-2.480469 8.410157.878906 11.28125 3.359375 2.871094 8.40625 2.476563 11.28125-.878906zm143.277344-168.800781 74.769531 88.160156-8.929687 8.917969-16.214844-11.925781c-2.820313-2.078126-6.667969-2.078126-9.488281 0l-17 12.511718-16.960938-12.464844c-2.820312-2.074218-6.660156-2.074218-9.480468 0l-16.964844 12.503907-16.953125-12.503907c-2.824219-2.085937-6.679688-2.085937-9.503907 0l-16.929687 12.496094-11.839844-8.726562zm0 0"/><path d="m392 128.316406c35.347656 0 64-28.65625 64-64 0-35.347656-28.652344-64-64-64s-64 28.652344-64 64c.050781 35.324219 28.675781 63.949219 64 64zm0-112c26.511719 0 48 21.488282 48 48 0 26.507813-21.488281 48-48 48-26.507812 0-48-21.492187-48-48 0-26.511718 21.492188-48 48-48zm0 0"/></g></svg>