<svg id="Capa_1" enable-background="new 0 0 512 512" height="512" viewBox="0 0 512 512" width="512" xmlns="http://www.w3.org/2000/svg"><g><path d="m391 121c33.091 0 60-26.909 60-60s-26.909-61-60-61-60 27.909-60 61 26.909 60 60 60z"/><path d="m331.513 322.724 15.685 189.276h87.603l15.686-189.276 30.513-30.513v-90.429c0-26.515-13.728-51.23-36.406-64.968-70.423-42.663-143.594 7.372-143.594 74.186v81.211z"/><path d="m151 241c66.167 0 120-53.833 120-120s-53.833-121-120-121-120 54.833-120 121 53.833 120 120 120zm-15-68.789-51.211-51.211 21.211-21.211 30 30 60-60 21.211 21.211z"/><path d="m151 512c66.167 0 120-54.833 120-121s-53.833-120-120-120-120 53.833-120 120 53.833 121 120 121zm-51.211-151 21.211-21.211 30 30 30-30 21.211 21.211-30 30 30 30-21.211 21.211-30-30-30 30-21.211-21.211 30-30z"/></g></svg>